<?xml version="1.0" encoding="UTF-8"?>
<svg xmlns="http://www.w3.org/2000/svg" xmlns:xlink="http://www.w3.org/1999/xlink" width="802pt" height="130pt" viewBox="0 0 802 130" version="1.1">
<g id="surface1">
<path style=" stroke:none;fill-rule:nonzero;fill:rgb(0%,0%,0%);fill-opacity:1;" d="M 171.792969 85.214844 C 181.40625 79.195312 188.023438 66.445312 188.023438 53.449219 C 188.023438 27.574219 167.230469 15.777344 147.875 15.777344 L 103.511719 15.777344 C 99.664062 15.777344 96.542969 18.910156 96.542969 22.753906 L 96.542969 116.027344 L 113.613281 116.027344 C 118.78125 116.027344 122.867188 111.8125 122.867188 106.757812 L 122.867188 91.234375 L 144.269531 91.234375 L 161.457031 116.027344 L 190.074219 116.027344 L 169.394531 86.777344 Z M 148.109375 66.921875 L 122.742188 66.921875 L 122.742188 39.730469 L 148.109375 39.730469 C 157 39.730469 161.691406 46.589844 161.691406 53.332031 C 161.691406 58.621094 158.085938 66.921875 148.109375 66.921875 Z M 0 20.832031 L 0 39.964844 L 32.097656 39.964844 L 32.097656 116.027344 L 49.167969 116.027344 C 54.335938 116.027344 58.429688 111.8125 58.429688 106.757812 L 58.429688 39.964844 L 82.589844 39.964844 C 86.917969 39.964844 90.527344 36.472656 90.527344 32.023438 L 90.527344 15.777344 L 5.050781 15.777344 C 2.28125 15.777344 0 18.0625 0 20.832031 Z M 196.4375 15.777344 C 193.671875 15.777344 191.390625 18.070312 191.390625 20.832031 L 191.390625 39.964844 L 223.484375 39.964844 L 223.484375 116.027344 L 240.558594 116.027344 C 245.726562 116.027344 249.820312 111.8125 249.820312 106.757812 L 249.820312 39.964844 L 273.980469 39.964844 C 278.308594 39.964844 281.917969 36.472656 281.917969 32.023438 L 281.917969 15.777344 Z M 196.4375 15.777344 "/>
<path style=" stroke:none;fill-rule:nonzero;fill:rgb(92.941176%,20.392157%,30.588235%);fill-opacity:1;" d="M 330.839844 116.269531 C 315.09375 116.386719 299.699219 111.578125 286.839844 102.550781 L 293.8125 87.625 C 294.414062 86.179688 295.859375 85.214844 297.535156 85.214844 C 298.140625 85.214844 300.421875 86.179688 304.265625 88.230469 C 306.183594 89.070312 307.871094 89.792969 309.3125 90.394531 C 316.527344 93.167969 324.105469 94.609375 331.796875 94.84375 C 339.96875 94.84375 344.773438 92.5625 346.101562 87.984375 C 346.34375 87.390625 346.34375 86.667969 346.34375 85.9375 C 346.34375 82.328125 344.0625 79.800781 339.371094 78.113281 C 337.324219 77.507812 335.160156 76.914062 332.996094 76.550781 C 331.191406 76.191406 328.550781 75.710938 325.058594 75.109375 C 321.453125 74.386719 318.808594 73.78125 317.007812 73.546875 C 300.179688 70.414062 290.800781 62.355469 288.996094 49.359375 C 288.753906 47.554688 288.519531 45.75 288.519531 43.945312 C 288.519531 34.199219 292.847656 26.492188 301.378906 20.714844 C 308.710938 16.140625 317.367188 13.738281 327.34375 13.738281 C 341.167969 13.738281 354.632812 17.710938 366.058594 25.289062 L 360.160156 37.566406 C 358.960938 40.089844 357.273438 41.300781 355.109375 41.300781 C 353.910156 41.300781 352.828125 40.941406 351.746094 40.460938 C 342.972656 36.609375 335.394531 34.558594 329.144531 34.324219 L 327.460938 34.324219 C 320.730469 34.324219 316.285156 36.011719 314.355469 39.378906 C 313.867188 40.34375 313.632812 41.300781 313.632812 42.382812 C 313.632812 45.75 315.554688 48.160156 319.523438 49.484375 C 321.328125 50.089844 323.246094 50.453125 325.175781 50.8125 L 341.761719 53.816406 C 357.871094 56.707031 367.492188 64.285156 370.496094 76.5625 C 371.097656 79.207031 371.332031 81.859375 371.332031 84.503906 C 371.332031 97.984375 364.957031 107.253906 352.339844 112.300781 C 345.386719 115.070312 338.171875 116.386719 330.839844 116.269531 Z M 330.839844 116.269531 "/>
<path style=" stroke:none;fill-rule:nonzero;fill:rgb(92.941176%,20.392157%,30.588235%);fill-opacity:1;" d="M 396.117188 114.582031 L 378.449219 114.582031 L 378.449219 21.789062 C 378.566406 17.699219 380.730469 15.535156 384.816406 15.410156 L 422.566406 15.410156 C 435.546875 15.410156 445.773438 19.742188 453.222656 28.40625 C 458.875 35.261719 461.996094 44.054688 461.753906 53.078125 C 461.753906 65.59375 457.179688 75.34375 448.160156 82.203125 C 441.074219 87.5 432.53125 90.144531 422.558594 90.144531 L 402.492188 90.144531 L 402.492188 108.074219 C 402.25 112.300781 400.085938 114.464844 396.117188 114.582031 Z M 402.25 36.84375 L 402.25 68.855469 L 422.207031 68.855469 C 428.222656 68.855469 432.667969 66.453125 435.3125 61.515625 C 436.753906 58.988281 437.476562 56.101562 437.476562 53.085938 C 437.476562 46.472656 434.949219 41.769531 429.78125 38.765625 C 427.5 37.4375 424.859375 36.714844 422.089844 36.84375 Z M 402.25 36.84375 "/>
<path style=" stroke:none;fill-rule:nonzero;fill:rgb(92.941176%,20.392157%,30.588235%);fill-opacity:1;" d="M 466.089844 65 C 466.089844 49.957031 471.140625 37.4375 481.242188 27.691406 C 490.980469 18.421875 503.238281 13.730469 518.027344 13.730469 C 533.539062 13.730469 546.164062 18.785156 555.894531 28.890625 C 565.273438 38.636719 569.839844 50.675781 569.839844 65 C 569.839844 80.160156 564.789062 92.5625 554.6875 102.191406 C 544.832031 111.578125 532.566406 116.269531 517.902344 116.269531 C 502.390625 116.269531 489.773438 111.214844 480.03125 101.109375 C 470.78125 91.351562 466.089844 79.324219 466.089844 65 Z M 490.132812 65 C 490.132812 74.386719 493.378906 82.09375 499.875 87.984375 C 504.808594 92.445312 511.289062 94.84375 518.027344 94.84375 C 526.683594 95.089844 534.980469 90.875 539.90625 83.773438 C 543.875 78.355469 545.921875 71.734375 545.921875 65.117188 C 545.921875 55.730469 542.675781 48.023438 536.183594 42.132812 C 531.257812 37.683594 524.765625 35.273438 518.027344 35.390625 C 509.371094 35.144531 501.082031 39.242188 496.148438 46.34375 C 492.171875 51.644531 490.007812 58.257812 490.132812 65 Z M 490.132812 65 "/>
<path style=" stroke:none;fill-rule:nonzero;fill:rgb(92.941176%,20.392157%,30.588235%);fill-opacity:1;" d="M 596.648438 114.582031 L 580.660156 114.582031 L 580.660156 21.789062 C 580.902344 17.699219 582.941406 15.535156 587.035156 15.410156 L 627.664062 15.410156 C 641.605469 15.410156 652.195312 19.859375 659.402344 28.765625 C 664.449219 35.027344 666.859375 42.484375 666.859375 51.390625 C 666.859375 62.941406 662.890625 72.09375 654.835938 78.835938 C 652.3125 81 649.425781 82.6875 646.304688 83.890625 L 667.582031 114.457031 L 640.769531 114.457031 L 622.136719 87.253906 L 604.585938 87.253906 L 604.585938 106.269531 C 604.703125 109.402344 603.027344 112.171875 600.257812 113.617188 C 599.050781 114.222656 597.851562 114.464844 596.648438 114.582031 Z M 604.578125 65.964844 L 627.421875 65.964844 C 633.671875 65.964844 638.117188 63.554688 640.886719 58.746094 C 642.085938 56.453125 642.6875 53.925781 642.6875 51.398438 C 642.6875 45.507812 640.28125 41.292969 635.359375 38.648438 C 632.957031 37.4375 630.191406 36.84375 627.421875 36.84375 L 604.578125 36.84375 Z M 604.578125 65.964844 "/>
<path style=" stroke:none;fill-rule:nonzero;fill:rgb(0%,0%,0%);fill-opacity:1;" d="M 798.617188 43.9375 C 801.621094 39.839844 802.46875 35.273438 801.144531 30.335938 C 798.746094 21.789062 789.96875 17.097656 781.3125 19.867188 C 773.375 22.394531 765.566406 24.921875 757.746094 27.574219 C 756.664062 27.933594 756.1875 27.691406 755.582031 26.851562 C 750.773438 20.226562 746.085938 13.613281 741.152344 6.996094 C 739.828125 5.308594 738.265625 3.632812 736.464844 2.546875 C 731.414062 -0.574219 726.128906 -0.699219 720.953125 2.1875 C 715.785156 5.074219 713.015625 9.652344 712.898438 15.542969 C 712.78125 23.972656 712.78125 32.277344 712.898438 40.695312 C 712.898438 41.894531 712.539062 42.257812 711.453125 42.617188 C 703.761719 45.027344 696.070312 47.554688 688.375 50.082031 C 684.046875 51.527344 680.800781 54.054688 678.753906 58.140625 C 674.425781 66.570312 678.753906 76.796875 687.890625 79.800781 C 695.699219 82.445312 703.519531 84.972656 711.335938 87.382812 C 712.539062 87.742188 712.898438 88.222656 712.898438 89.546875 C 712.78125 97.734375 712.898438 105.917969 712.898438 114.09375 C 712.898438 118.066406 714.222656 121.441406 716.75 124.445312 C 723.242188 132.027344 734.902344 131.550781 740.910156 123.605469 C 743.921875 119.636719 746.808594 115.546875 749.683594 111.578125 C 751.964844 108.445312 754.246094 105.3125 756.539062 102.191406 C 757.015625 102.308594 757.503906 102.433594 757.855469 102.550781 C 765.546875 105.078125 773.238281 107.605469 781.058594 110.132812 C 784.421875 111.214844 787.785156 111.449219 791.160156 110.375 C 801.378906 107.128906 805.230469 95.214844 798.96875 86.308594 C 794.164062 79.566406 789.355469 72.949219 784.421875 66.328125 C 783.703125 65.359375 783.703125 64.882812 784.421875 63.917969 C 788.996094 57.175781 793.800781 50.558594 798.617188 43.9375 Z M 780.582031 66.199219 C 785.867188 73.421875 791.160156 80.640625 796.445312 87.984375 C 801.855469 95.566406 797.769531 106.035156 788.75 107.96875 C 786.351562 108.453125 784.0625 108.210938 781.78125 107.488281 C 773.484375 104.71875 765.070312 102.074219 756.773438 99.304688 C 755.574219 98.941406 755.085938 99.1875 754.363281 100.144531 C 749.195312 107.363281 743.914062 114.582031 738.617188 121.800781 C 735.371094 126.25 730.925781 127.9375 725.515625 126.738281 C 720.230469 125.539062 716.984375 122.046875 715.902344 116.75 C 715.539062 114.699219 715.65625 112.652344 715.65625 110.484375 C 715.65625 107.363281 715.65625 104.347656 715.65625 101.214844 C 715.65625 96.640625 715.65625 91.949219 715.65625 87.371094 C 715.65625 86.289062 715.296875 85.683594 714.214844 85.449219 C 705.683594 82.679688 697.027344 79.910156 688.484375 77.148438 C 680.070312 74.375 677.066406 64.269531 682.351562 57.410156 C 684.15625 55.125 686.4375 53.683594 689.207031 52.835938 C 697.503906 50.191406 705.800781 47.417969 714.089844 44.773438 C 715.171875 44.414062 715.648438 43.9375 715.648438 42.726562 C 715.53125 33.945312 715.648438 25.273438 715.648438 16.492188 C 715.648438 10.238281 718.894531 5.542969 724.421875 3.738281 C 729.835938 1.933594 735.363281 3.855469 738.96875 8.910156 C 744.136719 16.011719 749.304688 23.117188 754.480469 30.21875 C 755.078125 31.058594 755.5625 31.300781 756.644531 30.941406 C 765.179688 28.167969 773.71875 25.398438 782.25 22.636719 C 789.339844 20.355469 796.554688 24.199219 798.601562 31.300781 C 799.683594 35.398438 798.960938 39.007812 796.4375 42.375 C 791.269531 49.59375 785.984375 56.695312 780.808594 63.917969 C 779.976562 64.757812 779.976562 65.359375 780.582031 66.199219 Z M 780.582031 66.199219 "/>
<path style=" stroke:none;fill-rule:nonzero;fill:rgb(0%,0%,0%);fill-opacity:1;" d="M 781.546875 38.648438 C 781.789062 38.285156 782.152344 37.808594 782.628906 37.085938 C 772.167969 40.453125 762.074219 43.703125 751.976562 47.078125 C 750.414062 47.5625 749.566406 47.320312 748.609375 45.992188 C 742.722656 37.808594 736.707031 29.621094 730.816406 21.445312 C 730.574219 21.085938 730.214844 20.605469 729.617188 19.886719 C 729.617188 20.851562 729.617188 21.445312 729.617188 21.933594 C 729.617188 31.925781 729.617188 41.914062 729.617188 52.023438 C 729.617188 53.710938 729.015625 54.433594 727.453125 55.035156 C 717.839844 58.042969 708.21875 61.289062 698.605469 64.304688 C 698.125 64.421875 697.640625 64.667969 696.917969 64.910156 C 697.640625 65.152344 698 65.269531 698.359375 65.386719 C 708.101562 68.519531 717.832031 71.769531 727.570312 74.898438 C 729.015625 75.386719 729.492188 76.109375 729.492188 77.542969 C 729.492188 87.652344 729.492188 97.769531 729.492188 107.878906 C 729.492188 108.363281 729.492188 108.960938 729.492188 109.925781 C 730.097656 109.203125 730.457031 108.714844 730.699219 108.363281 C 736.589844 100.179688 742.605469 91.992188 748.492188 83.816406 C 749.457031 82.488281 750.296875 82.253906 751.742188 82.734375 C 760.039062 85.503906 768.324219 88.148438 776.621094 90.800781 C 778.425781 91.398438 780.230469 92.003906 782.394531 92.605469 C 781.90625 91.886719 781.671875 91.523438 781.429688 91.164062 C 775.414062 82.976562 769.523438 74.675781 763.519531 66.488281 C 762.554688 65.28125 762.554688 64.324219 763.519531 63.121094 C 769.640625 55.136719 775.648438 46.949219 781.546875 38.648438 Z M 759.902344 66.082031 C 764.824219 72.824219 769.757812 79.566406 774.574219 86.308594 C 774.820312 86.667969 775.171875 87.148438 775.539062 87.75 C 774.574219 87.507812 773.980469 87.273438 773.25 87.148438 C 765.554688 84.621094 757.863281 82.09375 750.042969 79.566406 C 748.960938 79.207031 748.484375 79.449219 747.878906 80.289062 C 743.074219 86.902344 738.265625 93.527344 733.449219 100.144531 C 733.089844 100.628906 732.730469 101.109375 732.367188 101.585938 C 732.25 101.585938 732.125 101.585938 732.125 101.46875 C 732.125 98.941406 732.125 96.296875 732.125 93.761719 C 732.125 87.507812 732.125 81.371094 732.125 75.109375 C 732.125 74.023438 731.765625 73.546875 730.808594 73.304688 C 722.871094 70.777344 714.9375 68.132812 706.882812 65.59375 C 706.523438 65.476562 706.042969 65.351562 705.324219 65.109375 C 709.289062 63.789062 712.898438 62.699219 716.503906 61.5 C 721.3125 59.9375 726 58.367188 730.808594 56.921875 C 731.890625 56.5625 732.125 56.082031 732.125 55 C 732.125 46.699219 732.125 38.386719 732.125 30.210938 C 732.125 29.722656 732.125 29.242188 732.125 28.40625 C 732.613281 29.007812 732.964844 29.371094 733.207031 29.847656 C 738.140625 36.582031 743.066406 43.324219 747.878906 50.0625 C 748.476562 50.902344 748.960938 51.03125 749.925781 50.785156 C 757.863281 48.140625 765.789062 45.613281 773.726562 42.960938 C 774.089844 42.84375 774.566406 42.71875 775.40625 42.472656 C 774.925781 43.195312 774.566406 43.558594 774.324219 44.035156 C 769.398438 50.777344 764.582031 57.507812 759.660156 64.25 C 759.308594 64.757812 759.308594 65.242188 759.902344 66.082031 Z M 759.902344 66.082031 "/>
<path style=" stroke:none;fill-rule:nonzero;fill:rgb(0%,0%,0%);fill-opacity:1;" d="M 794.046875 40.6875 C 796.210938 37.800781 796.8125 34.550781 795.488281 31.175781 C 793.683594 26.121094 788.273438 23.59375 782.988281 25.273438 C 774.097656 28.160156 765.320312 31.046875 756.421875 33.9375 C 754.128906 34.660156 754.128906 34.660156 752.8125 32.734375 C 747.402344 25.273438 741.992188 17.933594 736.582031 10.472656 C 733.695312 6.617188 729.484375 5.058594 725.28125 6.5 C 720.953125 7.945312 718.425781 11.671875 718.425781 16.492188 C 718.425781 25.761719 718.425781 35.027344 718.425781 44.289062 C 718.425781 45.730469 717.9375 46.453125 716.503906 46.933594 C 707.730469 49.703125 698.828125 52.589844 690.054688 55.480469 C 688.007812 56.199219 686.203125 57.167969 684.769531 58.84375 C 680.324219 64.378906 682.722656 72.320312 689.578125 74.492188 C 698.59375 77.5 707.613281 80.394531 716.75 83.273438 C 717.949219 83.636719 718.433594 84.359375 718.433594 85.683594 C 718.433594 90.496094 718.433594 95.195312 718.433594 100.007812 C 718.433594 104.699219 718.433594 109.277344 718.433594 113.96875 C 718.433594 115.050781 718.550781 116.132812 718.914062 117.21875 C 720.121094 121.070312 722.765625 123.472656 726.730469 124.078125 C 730.699219 124.796875 734.0625 123.355469 736.472656 119.980469 C 742 112.398438 747.527344 104.816406 753.058594 97.109375 C 753.894531 95.910156 754.742188 95.550781 756.175781 96.027344 C 764.953125 98.914062 773.726562 101.804688 782.511719 104.574219 C 783.59375 104.933594 784.675781 105.296875 785.875 105.296875 C 789.96875 105.421875 793.089844 103.734375 795.011719 100.125 C 796.933594 96.515625 796.695312 92.90625 794.289062 89.65625 C 788.878906 82.074219 783.351562 74.492188 777.820312 66.914062 C 776.503906 64.992188 776.503906 64.992188 777.820312 63.1875 C 783.105469 55.730469 788.632812 48.152344 794.046875 40.6875 Z M 773.609375 66.328125 C 779.617188 74.511719 785.515625 82.6875 791.519531 90.875 C 793.683594 93.878906 793.8125 97.011719 791.882812 99.65625 C 789.960938 102.183594 786.957031 103.023438 783.46875 101.949219 C 773.851562 98.816406 764.347656 95.8125 754.851562 92.5625 C 753.652344 92.199219 752.929688 92.316406 752.210938 93.402344 C 746.320312 101.585938 740.304688 109.773438 734.414062 117.949219 C 732.496094 120.59375 729.96875 121.675781 726.839844 121.082031 C 723.710938 120.476562 721.546875 117.714844 721.546875 114.457031 C 721.546875 109.285156 721.546875 103.988281 721.546875 98.808594 C 721.546875 93.753906 721.546875 88.699219 721.546875 83.644531 C 721.546875 82.328125 721.1875 81.722656 719.859375 81.246094 C 710.121094 78.113281 700.390625 74.980469 690.765625 71.859375 C 687.042969 70.660156 684.996094 67.164062 685.960938 63.429688 C 686.679688 60.660156 688.484375 59.097656 691.128906 58.257812 C 700.625 55.253906 710.121094 52.003906 719.742188 48.988281 C 721.1875 48.503906 721.664062 47.90625 721.664062 46.34375 C 721.546875 36.238281 721.546875 26.003906 721.664062 15.894531 C 721.664062 11.078125 725.992188 7.828125 730.566406 9.15625 C 732.367188 9.632812 733.566406 10.84375 734.648438 12.277344 C 740.539062 20.460938 746.554688 28.648438 752.445312 36.832031 C 753.164062 37.800781 753.769531 38.035156 754.851562 37.671875 C 764.589844 34.425781 774.207031 31.292969 783.945312 28.160156 C 788.515625 26.714844 792.71875 29.242188 793.441406 33.820312 C 793.800781 35.867188 793.082031 37.671875 791.882812 39.359375 C 785.867188 47.546875 779.976562 55.722656 773.972656 63.90625 C 773.003906 64.640625 772.886719 65.242188 773.609375 66.328125 Z M 773.609375 66.328125 "/>
<path style=" stroke:none;fill-rule:nonzero;fill:rgb(0%,0%,0%);fill-opacity:1;" d="M 789.238281 37.683594 C 789.960938 36.714844 790.554688 35.273438 790.4375 34.070312 C 790.195312 31.183594 787.433594 29.621094 784.550781 30.578125 C 774.332031 33.828125 764.113281 37.203125 753.894531 40.570312 C 752.578125 40.929688 751.730469 40.8125 751.011719 39.605469 C 750.042969 38.160156 748.960938 36.714844 747.890625 35.273438 C 742.59375 28.050781 737.429688 20.832031 732.144531 13.613281 C 730.699219 11.691406 729.023438 10.96875 726.976562 11.691406 C 725.054688 12.285156 723.972656 13.972656 723.972656 16.265625 C 723.972656 26.976562 723.972656 37.691406 723.972656 48.402344 C 723.972656 49.847656 723.484375 50.453125 722.167969 50.8125 C 720.246094 51.292969 718.445312 52.011719 716.515625 52.617188 C 708.21875 55.261719 699.929688 58.03125 691.632812 60.675781 C 689.710938 61.28125 688.386719 62.480469 688.140625 64.53125 C 687.898438 66.824219 689.222656 68.5 691.867188 69.351562 C 701.96875 72.597656 712.058594 75.972656 722.285156 79.214844 C 723.484375 79.574219 723.972656 80.296875 723.972656 81.625 C 723.972656 86.921875 723.972656 92.335938 723.972656 97.75 C 723.972656 103.167969 723.972656 108.464844 723.972656 113.753906 C 723.972656 114.835938 724.332031 116.042969 724.9375 116.882812 C 726.742188 119.410156 730.105469 119.167969 732.152344 116.277344 C 738.402344 107.734375 744.535156 99.1875 750.785156 90.640625 C 751.75 89.320312 752.589844 88.960938 754.148438 89.554688 C 764.132812 92.921875 774.222656 96.179688 784.207031 99.304688 C 785.289062 99.664062 786.488281 99.789062 787.570312 99.546875 C 790.691406 98.707031 791.539062 95.332031 789.492188 92.445312 C 783.359375 84.015625 777.226562 75.59375 771.101562 67.164062 C 769.542969 65 769.542969 65 771.101562 62.835938 C 777.089844 54.53125 783.222656 46.101562 789.238281 37.683594 Z M 780.335938 84.980469 C 782.503906 87.984375 784.667969 91 786.949219 94.003906 C 787.425781 94.726562 788.148438 95.566406 787.308594 96.296875 C 786.820312 96.660156 785.75 96.785156 785.027344 96.542969 C 774.089844 93.050781 763.265625 89.566406 752.445312 85.957031 C 751.363281 85.59375 750.765625 85.839844 750.160156 86.675781 C 743.550781 95.820312 736.941406 104.972656 730.203125 114.113281 C 729.960938 114.472656 729.726562 114.953125 729.367188 115.195312 C 729.003906 115.441406 728.285156 115.675781 727.921875 115.558594 C 727.5625 115.441406 727.082031 114.835938 726.957031 114.355469 C 726.839844 113.871094 726.839844 113.390625 726.839844 112.914062 C 726.839844 101.59375 726.839844 90.40625 726.839844 79.097656 C 726.839844 77.898438 726.480469 77.535156 725.398438 77.175781 C 714.574219 73.683594 703.878906 70.199219 693.058594 66.707031 C 692.8125 66.589844 692.460938 66.589844 692.21875 66.460938 C 691.730469 66.101562 691.011719 65.496094 691.136719 65.136719 C 691.136719 64.65625 691.742188 63.933594 692.34375 63.691406 C 694.265625 62.96875 696.195312 62.375 698.117188 61.769531 C 707.253906 58.765625 716.386719 55.75 725.523438 52.863281 C 726.605469 52.5 726.964844 52.023438 726.964844 50.8125 C 726.964844 39.496094 726.964844 28.304688 726.964844 16.996094 C 726.964844 16.507812 726.964844 16.03125 726.964844 15.554688 C 727.210938 14.351562 728.410156 13.867188 729.367188 14.714844 C 729.726562 14.957031 729.96875 15.4375 730.203125 15.796875 C 736.816406 24.949219 743.550781 34.089844 750.160156 43.242188 C 750.882812 44.207031 751.363281 44.441406 752.570312 44.082031 C 763.390625 40.46875 774.089844 36.976562 784.910156 33.496094 C 785.269531 33.378906 785.632812 33.132812 785.875 33.25 C 786.480469 33.378906 787.199219 33.378906 787.433594 33.738281 C 787.667969 34.097656 787.679688 34.9375 787.433594 35.300781 C 787.074219 36.136719 786.351562 36.859375 785.875 37.582031 C 779.507812 46.371094 773.132812 55.035156 766.757812 63.816406 C 766.511719 64.179688 766.277344 64.539062 766.035156 65.019531 C 770.722656 71.742188 775.53125 78.355469 780.335938 84.980469 Z M 780.335938 84.980469 "/>
<path style=" stroke:none;fill-rule:nonzero;fill:rgb(92.941176%,20.392157%,30.588235%);fill-opacity:1;" d="M 728.402344 121.800781 C 727.804688 121.800781 727.199219 121.683594 726.597656 121.558594 C 723.234375 120.835938 720.824219 117.832031 720.824219 114.339844 C 720.824219 110.730469 720.824219 106.992188 720.824219 103.382812 L 720.824219 94.71875 C 720.824219 91.109375 720.824219 87.382812 720.824219 83.644531 C 720.824219 82.445312 720.582031 82.203125 719.507812 81.839844 C 710.371094 78.953125 701.238281 75.945312 690.414062 72.453125 C 686.320312 71.128906 684.28125 67.402344 685.246094 63.304688 C 685.96875 60.53125 687.773438 58.726562 690.902344 57.644531 C 694.871094 56.433594 698.710938 55.117188 702.679688 53.792969 C 708.335938 51.984375 713.863281 50.179688 719.507812 48.375 C 720.707031 48.015625 720.953125 47.652344 720.953125 46.328125 C 720.824219 36.816406 720.824219 26.824219 720.953125 15.75 C 720.953125 11.417969 724.199219 8.054688 728.402344 8.054688 C 729.121094 8.054688 729.960938 8.171875 730.691406 8.414062 C 732.367188 8.894531 733.8125 9.976562 735.019531 11.78125 C 737.066406 14.667969 739.230469 17.554688 741.269531 20.445312 C 745.121094 25.742188 748.960938 31.03125 752.8125 36.445312 C 753.292969 37.167969 753.535156 37.167969 753.777344 37.167969 C 754.023438 37.167969 754.257812 37.167969 754.5 37.050781 C 764.960938 33.558594 775.539062 30.191406 783.59375 27.539062 C 784.558594 27.292969 785.398438 27.050781 786.363281 27.050781 C 790.214844 27.050781 793.214844 29.695312 793.820312 33.546875 C 794.179688 35.597656 793.578125 37.519531 792.132812 39.566406 C 789.726562 42.816406 787.445312 46.066406 785.046875 49.316406 C 781.4375 54.25 777.832031 59.179688 774.222656 64.117188 C 773.628906 64.835938 773.628906 65.199219 774.222656 65.921875 C 779.03125 72.542969 783.835938 79.160156 788.652344 85.773438 L 792.015625 90.46875 C 794.296875 93.71875 794.414062 97.210938 792.378906 99.980469 C 790.933594 101.910156 788.894531 102.996094 786.371094 102.996094 C 785.40625 102.996094 784.324219 102.878906 783.25 102.507812 L 778.445312 100.945312 C 770.507812 98.417969 762.453125 95.773438 754.519531 93.121094 C 754.15625 93.003906 753.914062 93.003906 753.679688 93.003906 C 753.320312 93.003906 752.957031 93.121094 752.472656 93.84375 C 748.863281 98.78125 745.257812 103.832031 741.648438 108.769531 C 739.367188 112.019531 736.960938 115.152344 734.675781 118.398438 C 733.089844 120.71875 730.925781 121.800781 728.402344 121.800781 Z M 728.402344 12.042969 C 728.039062 12.042969 727.5625 12.160156 727.199219 12.285156 C 725.515625 12.773438 724.558594 14.21875 724.558594 16.382812 L 724.558594 20.957031 C 724.558594 30.109375 724.558594 39.378906 724.558594 48.519531 C 724.558594 50.207031 723.835938 51.164062 722.277344 51.527344 C 720.960938 51.886719 719.632812 52.363281 718.308594 52.851562 C 717.820312 52.96875 717.226562 53.214844 716.75 53.339844 L 709.289062 55.742188 C 703.519531 57.671875 697.628906 59.476562 691.859375 61.398438 C 689.9375 62.003906 688.972656 63.085938 688.855469 64.765625 C 688.609375 66.6875 689.820312 68.257812 692.101562 68.980469 L 699.199219 71.261719 C 706.890625 73.789062 714.710938 76.316406 722.402344 78.84375 C 723.964844 79.324219 724.566406 80.160156 724.566406 81.730469 C 724.566406 85.585938 724.566406 89.554688 724.566406 93.410156 L 724.566406 101.957031 C 724.566406 105.808594 724.566406 109.898438 724.566406 113.871094 C 724.566406 114.953125 724.929688 116.035156 725.40625 116.757812 C 726.128906 117.722656 727.09375 118.203125 728.175781 118.203125 C 729.492188 118.203125 730.699219 117.480469 731.664062 116.152344 L 732.746094 114.589844 C 738.519531 106.648438 744.410156 98.589844 750.179688 90.523438 C 750.785156 89.683594 751.496094 88.960938 752.824219 88.960938 C 753.183594 88.960938 753.660156 89.078125 754.265625 89.203125 C 763.402344 92.210938 773.257812 95.457031 784.324219 98.953125 C 784.917969 99.195312 785.640625 99.3125 786.246094 99.3125 C 786.605469 99.3125 786.964844 99.3125 787.210938 99.195312 C 788.410156 98.835938 789.257812 98.113281 789.609375 97.027344 C 790.09375 95.820312 789.726562 94.386719 788.769531 93.058594 C 784.566406 87.28125 780.355469 81.507812 776.144531 75.730469 L 770.617188 67.546875 C 768.8125 65.136719 768.8125 64.902344 770.617188 62.492188 L 774.464844 57.195312 C 779.15625 50.695312 784.089844 43.953125 788.769531 37.339844 C 789.492188 36.375 789.851562 35.054688 789.851562 34.089844 C 789.726562 32.167969 788.292969 30.839844 786.246094 30.839844 C 785.757812 30.839844 785.164062 30.957031 784.683594 31.085938 C 776.269531 33.730469 765.214844 37.339844 754.03125 41.074219 C 753.554688 41.203125 753.066406 41.320312 752.714844 41.320312 C 751.75 41.320312 751.027344 40.832031 750.421875 39.875 C 749.703125 38.792969 748.980469 37.828125 748.257812 36.871094 C 747.898438 36.382812 747.65625 36.03125 747.292969 35.542969 L 742.847656 29.523438 C 739.125 24.351562 735.28125 19.171875 731.546875 14 C 730.691406 12.648438 729.609375 12.042969 728.402344 12.042969 Z M 728.402344 12.042969 "/>
<path style=" stroke:none;fill-rule:nonzero;fill:rgb(0%,0%,0%);fill-opacity:1;" d="M 728.285156 8.792969 C 729.003906 8.792969 729.609375 8.910156 730.332031 9.035156 C 732.132812 9.515625 733.34375 10.726562 734.425781 12.160156 C 740.3125 20.34375 746.328125 28.53125 752.21875 36.707031 C 752.707031 37.429688 753.183594 37.671875 753.777344 37.671875 C 754.023438 37.671875 754.375 37.546875 754.742188 37.546875 C 764.484375 34.296875 774.097656 31.164062 783.835938 28.035156 C 784.675781 27.789062 785.640625 27.554688 786.480469 27.554688 C 789.96875 27.554688 792.730469 29.847656 793.332031 33.574219 C 793.695312 35.625 792.972656 37.429688 791.773438 39.109375 C 785.757812 47.292969 779.867188 55.480469 773.863281 63.65625 C 773.140625 64.621094 773.140625 65.214844 773.863281 66.183594 C 779.867188 74.367188 785.765625 82.554688 791.773438 90.738281 C 793.9375 93.742188 794.054688 96.875 792.132812 99.519531 C 790.816406 101.324219 788.886719 102.289062 786.605469 102.289062 C 785.640625 102.289062 784.683594 102.171875 783.71875 101.804688 C 774.105469 98.679688 764.601562 95.667969 755.105469 92.417969 C 754.742188 92.292969 754.382812 92.171875 754.023438 92.171875 C 753.417969 92.171875 752.941406 92.535156 752.335938 93.257812 C 746.445312 101.441406 740.429688 109.617188 734.542969 117.804688 C 732.980469 119.96875 731.050781 121.054688 728.652344 121.054688 C 728.050781 121.054688 727.570312 120.925781 726.847656 120.808594 C 723.71875 120.214844 721.554688 117.441406 721.554688 114.195312 C 721.554688 109.023438 721.554688 103.726562 721.554688 98.546875 C 721.554688 93.492188 721.554688 88.4375 721.554688 83.382812 C 721.554688 82.066406 721.195312 81.460938 719.871094 80.972656 C 710.128906 77.851562 700.398438 74.71875 690.777344 71.589844 C 687.050781 70.378906 685.003906 66.894531 685.96875 63.160156 C 686.691406 60.386719 688.492188 58.828125 691.136719 57.988281 C 700.632812 54.984375 710.128906 51.734375 719.75 48.71875 C 721.195312 48.242188 721.671875 47.636719 721.671875 46.074219 C 721.554688 35.96875 721.554688 25.734375 721.671875 15.625 C 721.429688 11.691406 724.441406 8.792969 728.285156 8.792969 M 728.167969 118.679688 C 729.609375 118.679688 731.050781 117.957031 732.132812 116.386719 C 738.382812 107.839844 744.515625 99.292969 750.765625 90.757812 C 751.363281 89.792969 752.082031 89.429688 752.929688 89.429688 C 753.292969 89.429688 753.652344 89.546875 754.128906 89.675781 C 764.113281 93.039062 774.207031 96.296875 784.1875 99.421875 C 784.785156 99.664062 785.632812 99.78125 786.351562 99.78125 C 786.714844 99.78125 787.191406 99.78125 787.550781 99.664062 C 790.671875 98.824219 791.519531 95.449219 789.472656 92.5625 C 783.339844 84.132812 777.207031 75.710938 771.085938 67.292969 C 769.523438 65.125 769.523438 65.125 771.085938 62.960938 C 777.21875 54.53125 783.351562 46.226562 789.355469 37.808594 C 790.078125 36.84375 790.671875 35.398438 790.554688 34.199219 C 790.4375 31.90625 788.632812 30.460938 786.351562 30.460938 C 785.75 30.460938 785.152344 30.578125 784.550781 30.707031 C 774.332031 33.953125 764.113281 37.320312 753.894531 40.695312 C 753.535156 40.8125 753.175781 40.941406 752.8125 40.941406 C 752.09375 40.941406 751.488281 40.578125 751.011719 39.855469 C 750.042969 38.414062 748.960938 36.96875 747.890625 35.523438 C 742.59375 28.304688 737.429688 21.085938 732.144531 13.867188 C 731.0625 12.421875 729.863281 11.699219 728.417969 11.699219 C 727.941406 11.699219 727.453125 11.816406 726.976562 11.941406 C 725.054688 12.546875 723.972656 14.234375 723.972656 16.519531 C 723.972656 27.230469 723.972656 37.945312 723.972656 48.65625 C 723.972656 50.101562 723.484375 50.703125 722.167969 51.066406 C 720.246094 51.542969 718.445312 52.265625 716.515625 52.871094 C 708.21875 55.515625 699.929688 58.285156 691.632812 60.929688 C 689.710938 61.535156 688.386719 62.734375 688.140625 64.785156 C 687.898438 67.066406 689.222656 68.753906 691.867188 69.59375 C 701.96875 72.84375 712.058594 76.21875 722.285156 79.46875 C 723.484375 79.828125 723.972656 80.550781 723.972656 81.867188 C 723.972656 87.164062 723.972656 92.578125 723.972656 97.996094 C 723.972656 103.410156 723.972656 108.707031 723.972656 113.996094 C 723.972656 115.078125 724.332031 116.289062 724.9375 117.128906 C 725.757812 118.074219 726.964844 118.679688 728.167969 118.679688 M 728.285156 7.59375 C 723.835938 7.59375 720.230469 11.203125 720.230469 15.894531 C 720.230469 26.96875 720.230469 36.960938 720.230469 46.464844 C 720.230469 47.429688 720.113281 47.664062 719.148438 47.90625 C 713.492188 49.710938 707.847656 51.515625 702.320312 53.320312 C 698.351562 54.640625 694.507812 55.847656 690.542969 57.175781 C 687.292969 58.257812 685.246094 60.308594 684.527344 63.195312 C 683.445312 67.527344 685.734375 71.625 690.179688 73.058594 C 698.957031 75.945312 709.171875 79.3125 719.273438 82.445312 C 720.113281 82.6875 720.113281 82.804688 720.113281 83.644531 C 720.113281 87.382812 720.113281 91.109375 720.113281 94.71875 C 720.113281 96.046875 720.113281 97.488281 720.113281 98.816406 L 720.113281 100.015625 C 720.113281 101.226562 720.113281 102.308594 720.113281 103.507812 C 720.113281 107.117188 720.113281 110.855469 720.113281 114.464844 C 720.113281 118.320312 722.753906 121.566406 726.363281 122.289062 C 727.082031 122.40625 727.6875 122.535156 728.410156 122.535156 C 731.179688 122.535156 733.460938 121.214844 735.261719 118.804688 C 737.546875 115.558594 739.953125 112.425781 742.234375 109.175781 C 745.84375 104.238281 749.449219 99.1875 753.058594 94.132812 C 753.417969 93.527344 753.660156 93.527344 753.660156 93.527344 C 753.777344 93.527344 754.023438 93.527344 754.382812 93.644531 C 762.4375 96.289062 770.734375 98.941406 778.667969 101.585938 L 783.117188 103.03125 C 784.199219 103.390625 785.28125 103.625 786.363281 103.625 C 789.003906 103.625 791.285156 102.542969 792.855469 100.378906 C 795.136719 97.246094 795.019531 93.519531 792.496094 90.144531 L 789.246094 85.566406 C 784.441406 78.945312 779.507812 72.210938 774.703125 65.585938 C 774.339844 65.097656 774.339844 64.980469 774.703125 64.503906 C 778.308594 59.574219 782.03125 54.511719 785.523438 49.703125 C 787.929688 46.453125 790.214844 43.203125 792.613281 39.957031 C 794.171875 37.789062 794.777344 35.742188 794.414062 33.457031 C 793.820312 29.242188 790.566406 26.355469 786.363281 26.355469 C 785.398438 26.355469 784.441406 26.472656 783.359375 26.832031 C 775.304688 29.476562 764.726562 32.855469 754.265625 36.347656 C 754.023438 36.464844 753.789062 36.464844 753.671875 36.464844 C 753.554688 36.464844 753.425781 36.464844 753.183594 35.984375 C 749.332031 30.6875 745.492188 25.273438 741.765625 20.09375 C 739.601562 17.203125 737.5625 14.316406 735.398438 11.429688 C 734.074219 9.507812 732.511719 8.421875 730.710938 7.9375 C 729.851562 7.710938 729.003906 7.59375 728.285156 7.59375 Z M 728.167969 117.46875 C 727.328125 117.46875 726.480469 116.992188 725.882812 116.269531 C 725.398438 115.664062 725.164062 114.707031 725.164062 113.742188 C 725.046875 109.773438 725.164062 105.800781 725.164062 101.832031 C 725.164062 100.386719 725.164062 99.058594 725.164062 97.625 C 725.164062 96.179688 725.164062 94.738281 725.164062 93.292969 C 725.164062 89.4375 725.164062 85.46875 725.164062 81.496094 C 725.164062 79.691406 724.324219 78.609375 722.636719 78.003906 C 714.703125 75.476562 706.773438 72.832031 698.957031 70.296875 L 692.226562 68.132812 C 691.019531 67.769531 689.097656 66.804688 689.339844 64.523438 C 689.585938 63.078125 690.308594 62.238281 691.984375 61.632812 C 697.875 59.710938 703.644531 57.90625 709.535156 55.976562 L 716.867188 53.566406 C 717.46875 53.449219 717.949219 53.203125 718.550781 53.078125 C 719.871094 52.601562 721.195312 52.238281 722.519531 51.878906 C 724.324219 51.390625 725.164062 50.191406 725.164062 48.269531 C 725.164062 39.117188 725.164062 29.976562 725.164062 20.949219 L 725.164062 16.140625 C 725.164062 14.8125 725.523438 13.25 727.328125 12.648438 C 727.6875 12.53125 728.050781 12.53125 728.410156 12.53125 C 729.375 12.53125 730.332031 13.125 731.179688 14.21875 C 735.027344 19.515625 738.871094 24.804688 742.722656 30.101562 L 746.933594 35.875 C 747.292969 36.363281 747.527344 36.714844 747.898438 37.203125 C 748.621094 38.167969 749.339844 39.125 750.0625 40.207031 C 750.785156 41.292969 751.75 41.894531 752.832031 41.894531 C 753.308594 41.894531 753.796875 41.777344 754.273438 41.652344 C 765.339844 38.042969 776.515625 34.433594 784.929688 31.664062 C 785.414062 31.546875 785.894531 31.417969 786.253906 31.417969 C 787.695312 31.417969 789.140625 32.257812 789.257812 34.0625 C 789.257812 34.902344 788.894531 36.113281 788.292969 36.949219 C 783.601562 43.566406 778.796875 50.191406 774.105469 56.6875 L 770.136719 62.230469 C 768.21875 64.757812 768.21875 65.351562 770.136719 68.003906 L 775.792969 75.828125 C 779.996094 81.605469 784.207031 87.382812 788.417969 93.285156 C 789.257812 94.484375 789.5 95.683594 789.140625 96.777344 C 788.894531 97.617188 788.175781 98.21875 787.09375 98.582031 C 786.847656 98.699219 786.605469 98.699219 786.253906 98.699219 C 785.648438 98.699219 785.054688 98.582031 784.449219 98.453125 C 773.382812 94.960938 763.527344 91.722656 754.390625 88.707031 C 753.796875 88.464844 753.308594 88.464844 752.832031 88.464844 C 751.269531 88.464844 750.304688 89.429688 749.710938 90.386719 C 743.8125 98.574219 737.691406 106.875 731.917969 114.933594 L 731.195312 116.015625 C 730.332031 116.75 729.25 117.46875 728.167969 117.46875 Z M 728.167969 117.46875 "/>
</g>
</svg>
